# written by convert_mb_to_amc()
:FULLY-SPECIFIED
:DEGREES
47
upperback -1.629944 0.078614 1.472783
rfoot 32.202244 -20.829994
lradius 31.289532
lthumb 13.780107 55.158451
rradius 19.305138
lwrist 7.864443
rhand -8.040908 2.903736
rhumerus -52.470745 0.208859 -90.678642
lowerneck -6.426219 -2.034160 1.870145
lhand -12.287333 25.634874
ltibia 43.340069
head 2.936316 -1.403412 -1.008607
rwrist -3.170697
lfingers 7.125020
rtoes 38.112446
lowerback 6.035565 -0.176956 3.249111
rfingers 7.125020
lclavicle 0.000000 0.000000
upperneck 5.828050 -2.779055 -1.723644
rfemur -25.445372 -37.518337 11.361073
thorax -5.080161 -0.044773 -0.302787
rclavicle 0.000000 0.000000
rtibia 94.588394
lfoot -23.742128 11.283330
lhumerus -41.604923 -11.635004 91.262917
rthumb 17.869478 -26.295267
root 12.875253 18.940851 -21.214149 69.010323 -83.885918 -423.847107
ltoes 5.883444
lfemur -25.754349 18.050955 -25.297112
48
upperback -3.902631 4.160379 -1.670694
rfoot -25.199535 -20.937567
lradius 29.926607
lthumb 7.793509 59.203671
rradius 17.148163
lwrist 19.129278
rhand -18.950750 17.644487
rhumerus -49.043461 4.282399 -98.205795
lowerneck -5.751928 0.398711 4.714025
lhand -18.494057 29.367777
ltibia 60.593014
head 1.640688 0.120073 -0.987738
rwrist 9.137589
lfingers 7.125020
rtoes -28.530195
lowerback 2.555552 3.134106 1.584746
rfingers 7.125020
lclavicle -0.000000 -0.000000
upperneck 2.086165 0.193948 -0.604027
rfemur 8.486403 -3.013693 25.679001
thorax -5.233635 1.949437 -2.902484
rclavicle -0.000000 -0.000000
rtibia 22.488152
lfoot -23.356131 15.794376
lhumerus -41.500599 -3.341436 84.447792
rthumb 7.352685 -12.207735
root 15.150745 17.880596 -21.744932 174.939514 -74.204796 -517.862793
ltoes 7.108866
lfemur -59.902504 26.835588 -33.520275
49
upperback -1.352541 0.895089 -0.887050
rfoot -14.032422 -10.574191
lradius 15.114759
lthumb 27.408920 64.422699
rradius 15.974358
lwrist -29.903597
rhand -9.684277 -39.795853
rhumerus -30.715221 43.906704 -32.097965
lowerneck -3.987560 0.265004 3.128155
lhand 1.900086 36.397499
ltibia 57.032322
head 2.216703 0.081205 0.669037
rwrist 15.022467
lfingers 7.125020
rtoes -24.831182
lowerback 1.045205 0.688826 -0.041700
rfingers 7.125020
lclavicle 0.000000 0.000000
upperneck 4.868334 -0.111838 3.813041
rfemur 2.369892 -20.260292 20.458513
thorax -1.956678 0.437665 -0.909651
rclavicle 0.000000 0.000000
rtibia 44.896557
lfoot -21.361097 12.636904
lhumerus -24.250364 -16.916798 16.248848
rthumb 16.289925 -69.222458
root 15.195424 18.108593 -21.941463 158.105896 -80.862503 -506.374603
ltoes 7.751413
lfemur -50.742199 24.177063 -30.186600
50
upperback -0.330483 -2.229845 4.521929
rfoot -24.373688 -17.747454
lradius 28.167475
lthumb 38.499474 52.129246
rradius 37.509136
lwrist -28.826258
rhand 35.985680 -1.604241
rhumerus 44.667267 -43.839043 -7.630006
lowerneck -0.036725 -0.900886 1.301192
lhand 13.565397 26.468607
ltibia 45.759472
head 6.077002 -1.118658 -0.349101
rwrist 30.477383
lfingers 7.125020
rtoes -12.787526
lowerback 5.890683 -1.819606 1.802349
rfingers 7.125020
lclavicle -0.000000 0.000000
upperneck 20.108675 -1.966433 -0.002070
rfemur -45.355827 -38.694687 -0.073851
thorax -3.535069 -1.141633 3.874633
rclavicle -0.000000 0.000000
rtibia 97.357819
lfoot -24.321444 14.765759
lhumerus 39.773056 38.973930 4.584251
rthumb 58.992420 -16.399883
root 12.927073 18.831224 -21.637005 67.195816 -80.907013 -431.665131
ltoes 6.203661
lfemur -16.253124 16.947636 -17.629719
51
upperback -2.838646 0.897567 3.131538
rfoot -30.265648 -28.749390
lradius 44.815868
lthumb -20.826691 74.160667
rradius 58.059467
lwrist -32.547874
rhand -53.248436 -19.450249
rhumerus 30.607237 -46.392765 -16.824343
lowerneck -11.003359 -1.738508 2.554528
lhand -48.164764 45.258518
ltibia 53.550171
head 12.863496 -2.009939 -2.500908
rwrist 31.326563
lfingers 7.125020
rtoes 5.795204
lowerback 4.353154 0.429943 3.432695
rfingers 7.125020
lclavicle -0.000000 -0.000000
upperneck 33.479099 -3.129791 -3.902222
rfemur -18.828474 25.368942 -6.780489
thorax -5.391028 0.353357 1.250138
rclavicle -0.000000 -0.000000
rtibia 31.568176
lfoot -31.149101 14.108053
lhumerus 33.597771 35.936615 7.371952
rthumb -25.703527 -47.732971
root 12.052318 18.211866 -21.868135 58.706745 -85.489494 -422.799011
ltoes 5.235558
lfemur -16.832081 17.558128 -20.946453
52
upperback -3.417172 1.794711 3.998077
rfoot -28.683332 -30.608232
lradius 22.025000
lthumb -21.918587 87.693298
rradius 35.217972
lwrist -28.987339
rhand -65.327545 -41.324474
rhumerus 17.758093 -42.505573 -12.698612
lowerneck -12.921219 -2.258965 1.410517
lhand -49.301521 58.914970
ltibia 56.451778
head 9.125446 -1.798618 -1.360772
rwrist 28.033583
lfingers 7.125020
rtoes 26.844019
lowerback 4.361974 0.918308 6.774462
rfingers 7.125020
lclavicle -0.000000 0.000000
upperneck 22.490049 -3.331746 -2.100811
rfemur -20.270794 36.420334 -11.665706
thorax -5.951906 0.639522 0.221292
rclavicle -0.000000 0.000000
rtibia 32.499012
lfoot -31.339025 9.130587
lhumerus 12.560205 30.940197 7.065177
rthumb -37.207191 -427.332855
root 11.770552 17.959406 -22.885992 -78.081375 -87.094055 -280.674652
ltoes -2.475141
lfemur -23.289371 22.664307 -25.741884
53
upperback -2.630771 1.504131 6.855561
rfoot -27.101017 -32.467075
lradius 17.750280
lthumb -16.263947 83.661156
rradius 23.598688
lwrist -25.910812
rhand -60.514782 -29.660080
rhumerus 10.942404 -42.812065 -7.765263
lowerneck -12.640575 -2.727270 0.320908
lhand -43.421246 54.323723
ltibia 58.094040
head 4.751689 -1.827463 2.072932
rwrist 27.004581
lfingers 7.125020
rtoes 35.249096
lowerback 4.611398 0.427956 13.768064
rfingers 7.125020
lclavicle 0.000000 -0.000000
upperneck 8.272965 -4.714025 8.040798
rfemur -24.758707 28.895987 -21.035173
thorax -5.245911 0.243413 -0.549493
rclavicle 0.000000 -0.000000
rtibia 31.758661
lfoot -31.258509 6.221371
lhumerus -5.450322 19.280798 10.412628
rthumb -32.641792 -416.735138
root 11.485007 17.797041 -23.114578 -65.077545 -81.383118 -286.876221
ltoes -5.612528
lfemur -31.149626 22.449247 -33.427586
54
upperback 0.181637 -0.719937 5.600655
rfoot -25.518700 -34.325916
lradius 18.149872
lthumb 3.458814 70.048134
rradius 19.173754
lwrist -13.808930
rhand -57.444073 -21.577019
rhumerus -1.321790 -26.040464 -2.981900
lowerneck -8.167031 -4.983601 0.159574
lhand -22.983719 40.096512
ltibia 44.439571
head 5.244101 -3.399139 0.940276
rwrist 9.873736
lfingers 7.125020
rtoes 44.356419
lowerback 4.438773 -0.776354 6.656695
rfingers 7.125020
lclavicle 0.000000 0.000000
upperneck 12.350053 -7.536719 4.819209
rfemur -25.584476 21.733387 -17.972534
thorax -2.311556 -0.467669 2.112903
rclavicle 0.000000 0.000000
rtibia 32.327209
lfoot -16.318796 0.474513
lhumerus 5.981099 19.863293 5.866148
rthumb -29.715368 -409.224609
root 11.283678 18.925922 -24.646812 -38.543255 -78.118492 -309.303955
ltoes -11.990153
lfemur -29.233934 17.237810 -28.597338
55
upperback 0.399371 -1.616768 2.299759
rfoot -23.936384 -36.184757
lradius 19.759674
lthumb -0.568597 73.394585
rradius 19.911449
lwrist -10.784986
rhand -55.483391 -23.430006
rhumerus 4.424026 -37.861706 -1.887571
lowerneck -5.048777 -5.677843 4.110698
lhand -27.153761 43.415665
ltibia 37.453339
head 8.352022 -4.361477 -0.712294
rwrist 12.524727
lfingers 7.125020
rtoes 33.309879
lowerback 2.498488 -1.255059 2.080547
rfingers 7.125020
lclavicle 0.000000 -0.000000
upperneck 24.356667 -9.944140 2.573704
rfemur -21.607515 23.991175 -5.806445
thorax -0.981284 -0.822235 1.244909
rclavicle 0.000000 -0.000000
rtibia 34.808479
lfoot -15.578915 4.734705
lhumerus 19.785948 24.211771 6.579792
rthumb -27.842348 -411.386810
root 11.090080 18.921917 -26.719334 -28.819252 -78.595573 -322.925598
ltoes -13.533986
lfemur -19.964947 14.932659 -17.607328
56
upperback -0.815085 -2.802147 -3.676436
rfoot -17.228470 -28.017710
lradius 22.794474
lthumb -10.177529 71.030891
rradius 31.510311
lwrist -21.227833
rhand -43.679531 11.923147
rhumerus -4.929374 -57.958836 7.343763
lowerneck -11.008032 -1.577432 1.093176
lhand -37.106670 41.297047
ltibia 42.973911
head 14.092001 -2.356476 0.970266
rwrist -23.098438
lfingers 7.125020
rtoes 1.260127
lowerback 2.540412 -1.797081 -7.350314
rfingers 7.125020
lclavicle -0.000000 -0.000000
upperneck 35.371986 -6.091352 5.496628
rfemur -19.913479 -30.667784 14.904366
thorax -2.110229 -1.355319 0.434800
rclavicle -0.000000 -0.000000
rtibia 49.810551
lfoot -20.555874 2.917943
lhumerus 22.839582 22.958696 3.166486
rthumb -16.512718 -377.394318
root 10.585563 18.304878 -27.573540 41.025658 -75.447014 -403.127411
ltoes -20.840448
lfemur -11.866443 12.752835 7.748237
57
upperback -0.952006 3.940857 -6.894158
rfoot -36.048615 -22.310696
lradius 20.176228
lthumb 1.182224 66.429955
rradius 75.428772
lwrist -17.404247
rhand -23.224236 0.380651
rhumerus 55.866730 -53.229576 -33.666138
lowerneck -10.995610 -2.151076 0.326015
lhand -25.341017 36.453545
ltibia 73.955292
head 11.135041 -2.721983 5.028432
rwrist -67.905151
lfingers 7.125020
rtoes -5.511595
lowerback 1.869701 3.322156 -4.415519
rfingers 7.125020
lclavicle -0.000000 0.000000
upperneck 25.939079 -9.064760 17.358637
rfemur -13.208586 -26.838446 44.264866
thorax -1.850646 1.879904 -4.798287
rclavicle -0.000000 0.000000
rtibia 49.853859
lfoot -37.906010 27.459709
lhumerus -32.952324 31.294453 0.338984
rthumb 3.226543 -389.573730
root 7.861630 17.853767 -34.329243 105.530693 -72.350815 -465.409424
ltoes 37.849281
lfemur -40.410118 20.013088 1.220560
58
upperback 0.765434 10.513727 -4.652138
rfoot -26.514776 -20.422047
lradius 17.250593
lthumb 7.187831 53.153191
rradius 68.413712
lwrist -19.455975
rhand -15.568800 16.677500
rhumerus 64.471130 30.263489 -40.921982
lowerneck -8.253506 -5.591104 -3.342713
lhand -19.121561 23.295311
ltibia 46.531948
head 3.227370 -3.763547 4.712637
rwrist -56.242214
lfingers 7.125020
rtoes -19.336391
lowerback 4.879364 7.901515 2.804917
rfingers 7.125020
lclavicle -0.000000 0.000000
upperneck 3.515001 -8.348184 15.270473
rfemur -21.595634 -25.670771 39.862122
thorax -0.524611 5.255424 -6.809732
rclavicle -0.000000 0.000000
rtibia 66.136108
lfoot -5.068118 9.321062
lhumerus -42.482342 8.504770 67.415993
rthumb 10.616127 -373.049927
root 3.634232 17.449131 -37.255669 174.589813 -63.479633 -516.949158
ltoes 30.310537
lfemur -61.256573 8.011265 -36.919403
